<svg height="512pt" viewBox="0 0 512 512" width="512pt" xmlns="http://www.w3.org/2000/svg"><path d="m10.667969 266.667969c-5.890625 0-10.667969-4.78125-10.667969-10.667969 0-141.164062 114.835938-256 256-256 101.867188 0 185.921875 60.777344 243.070312 175.785156 2.625 5.292969.472657 11.671875-4.796874 14.292969-5.292969 2.648437-11.691407.472656-14.292969-4.796875-37.1875-74.796875-106.199219-163.949219-223.980469-163.949219-129.386719 0-234.667969 105.28125-234.667969 234.667969 0 5.886719-4.777343 10.667969-10.664062 10.667969zm0 0"/><path d="m501.332031 192h-85.332031c-5.886719 0-10.667969-4.777344-10.667969-10.667969 0-5.886719 4.78125-10.664062 10.667969-10.664062h74.667969v-73.773438c0-5.886719 4.777343-10.664062 10.664062-10.664062 5.890625 0 10.667969 4.777343 10.667969 10.664062v84.4375c0 5.890625-4.777344 10.667969-10.667969 10.667969zm0 0"/><path d="m256 512c-101.867188 0-185.921875-60.777344-243.070312-175.785156-2.625-5.292969-.472657-11.671875 4.796874-14.292969 5.3125-2.667969 11.671876-.449219 14.292969 4.796875 37.1875 74.796875 106.199219 163.949219 223.980469 163.949219 129.386719 0 234.667969-105.28125 234.667969-234.667969 0-5.886719 4.777343-10.667969 10.664062-10.667969 5.890625 0 10.667969 4.78125 10.667969 10.667969 0 141.164062-114.835938 256-256 256zm0 0"/><path d="m10.667969 425.769531c-5.890625 0-10.667969-4.777343-10.667969-10.664062v-84.4375c0-5.890625 4.777344-10.667969 10.667969-10.667969h85.332031c5.886719 0 10.667969 4.777344 10.667969 10.667969 0 5.886719-4.78125 10.664062-10.667969 10.664062h-74.667969v73.773438c0 5.90625-4.777343 10.664062-10.664062 10.664062zm0 0"/></svg>